<mxfile host="www.draw.io" modified="2020-02-18T03:02:26.577Z" agent="Mozilla/5.0 (Macintosh; Intel Mac OS X 10_15_1) AppleWebKit/537.36 (KHTML, like Gecko) Chrome/79.0.3945.130 Safari/537.36 Edg/79.0.309.71" etag="SJlsN7CNTg1kBTmCNnPE" version="12.7.1" type="github">
  <diagram id="Umu5q6S04zW-6YSL-UDz" name="Page-1">
    <mxGraphModel dx="1426" dy="1936" grid="1" gridSize="10" guides="1" tooltips="1" connect="1" arrows="1" fold="1" page="1" pageScale="1" pageWidth="827" pageHeight="1169" math="0" shadow="0">
      <root>
        <mxCell id="0" />
        <mxCell id="1" parent="0" />
        <mxCell id="wjYXXtgGg5O6mG5rprIA-1" value="PageMonitringMain" style="ellipse;whiteSpace=wrap;html=1;" parent="1" vertex="1">
          <mxGeometry x="290" y="50" width="220" height="180" as="geometry" />
        </mxCell>
        <mxCell id="WP3GIV7tcJfg-KmQSKY6-4" value="PageDevMonitoring&lt;br&gt;(PageDevService)" style="ellipse;whiteSpace=wrap;html=1;" vertex="1" parent="1">
          <mxGeometry x="40" y="420" width="190" height="120" as="geometry" />
        </mxCell>
        <mxCell id="WP3GIV7tcJfg-KmQSKY6-5" value="&lt;span style=&quot;white-space: normal&quot;&gt;PageAdminMonitoring&lt;br&gt;(PageAdminService)&lt;br&gt;&lt;/span&gt;" style="ellipse;whiteSpace=wrap;html=1;" vertex="1" parent="1">
          <mxGeometry x="340" y="435" width="160" height="105" as="geometry" />
        </mxCell>
        <mxCell id="WP3GIV7tcJfg-KmQSKY6-6" value="&lt;span style=&quot;white-space: normal&quot;&gt;PageOperMonitoring&lt;br&gt;(PageOperService)&lt;br&gt;&lt;/span&gt;" style="ellipse;whiteSpace=wrap;html=1;" vertex="1" parent="1">
          <mxGeometry x="620" y="425" width="140" height="110" as="geometry" />
        </mxCell>
        <mxCell id="WP3GIV7tcJfg-KmQSKY6-7" value="" style="endArrow=classic;html=1;entryX=0.417;entryY=0;entryDx=0;entryDy=0;entryPerimeter=0;" edge="1" parent="1" target="WP3GIV7tcJfg-KmQSKY6-6">
          <mxGeometry width="50" height="50" relative="1" as="geometry">
            <mxPoint x="460" y="290" as="sourcePoint" />
            <mxPoint x="610" y="150" as="targetPoint" />
            <Array as="points">
              <mxPoint x="480" y="340" />
            </Array>
          </mxGeometry>
        </mxCell>
        <mxCell id="WP3GIV7tcJfg-KmQSKY6-10" value="" style="endArrow=classic;html=1;entryX=0.5;entryY=0;entryDx=0;entryDy=0;" edge="1" parent="1" source="WP3GIV7tcJfg-KmQSKY6-14" target="WP3GIV7tcJfg-KmQSKY6-5">
          <mxGeometry width="50" height="50" relative="1" as="geometry">
            <mxPoint x="400" y="230" as="sourcePoint" />
            <mxPoint x="450" y="180" as="targetPoint" />
          </mxGeometry>
        </mxCell>
        <mxCell id="WP3GIV7tcJfg-KmQSKY6-11" value="" style="endArrow=classic;html=1;exitX=0;exitY=0.5;exitDx=0;exitDy=0;" edge="1" parent="1" source="WP3GIV7tcJfg-KmQSKY6-14" target="WP3GIV7tcJfg-KmQSKY6-4">
          <mxGeometry width="50" height="50" relative="1" as="geometry">
            <mxPoint x="330" y="210" as="sourcePoint" />
            <mxPoint x="380" y="160" as="targetPoint" />
          </mxGeometry>
        </mxCell>
        <mxCell id="WP3GIV7tcJfg-KmQSKY6-12" value="" style="shape=flexArrow;endArrow=classic;html=1;" edge="1" parent="1">
          <mxGeometry width="50" height="50" relative="1" as="geometry">
            <mxPoint x="399.5" y="-20" as="sourcePoint" />
            <mxPoint x="399.5" y="50" as="targetPoint" />
          </mxGeometry>
        </mxCell>
        <mxCell id="WP3GIV7tcJfg-KmQSKY6-14" value="checkUserRole" style="rounded=0;whiteSpace=wrap;html=1;" vertex="1" parent="1">
          <mxGeometry x="340" y="250" width="120" height="60" as="geometry" />
        </mxCell>
        <mxCell id="WP3GIV7tcJfg-KmQSKY6-15" value="" style="endArrow=classic;html=1;entryX=0.5;entryY=0;entryDx=0;entryDy=0;" edge="1" parent="1" target="WP3GIV7tcJfg-KmQSKY6-14">
          <mxGeometry width="50" height="50" relative="1" as="geometry">
            <mxPoint x="400" y="230" as="sourcePoint" />
            <mxPoint x="400" y="435" as="targetPoint" />
          </mxGeometry>
        </mxCell>
        <mxCell id="WP3GIV7tcJfg-KmQSKY6-20" value="PageMonitoringMetricService" style="ellipse;whiteSpace=wrap;html=1;" vertex="1" parent="1">
          <mxGeometry x="80" y="690" width="317" height="80" as="geometry" />
        </mxCell>
        <mxCell id="WP3GIV7tcJfg-KmQSKY6-22" value="PageMonitoringCommonService" style="ellipse;whiteSpace=wrap;html=1;" vertex="1" parent="1">
          <mxGeometry x="680" y="690" width="410" height="80" as="geometry" />
        </mxCell>
        <mxCell id="WP3GIV7tcJfg-KmQSKY6-23" value="" style="endArrow=classic;html=1;entryX=0.033;entryY=0.3;entryDx=0;entryDy=0;entryPerimeter=0;" edge="1" parent="1" target="WP3GIV7tcJfg-KmQSKY6-20">
          <mxGeometry width="50" height="50" relative="1" as="geometry">
            <mxPoint x="140" y="540" as="sourcePoint" />
            <mxPoint x="240" y="550" as="targetPoint" />
          </mxGeometry>
        </mxCell>
        <mxCell id="WP3GIV7tcJfg-KmQSKY6-25" value="" style="endArrow=classic;html=1;entryX=0.5;entryY=0;entryDx=0;entryDy=0;" edge="1" parent="1" target="WP3GIV7tcJfg-KmQSKY6-20">
          <mxGeometry width="50" height="50" relative="1" as="geometry">
            <mxPoint x="410" y="540" as="sourcePoint" />
            <mxPoint x="541.961" y="654" as="targetPoint" />
          </mxGeometry>
        </mxCell>
        <mxCell id="WP3GIV7tcJfg-KmQSKY6-26" value="" style="endArrow=classic;html=1;entryX=1;entryY=0;entryDx=0;entryDy=0;" edge="1" parent="1" target="WP3GIV7tcJfg-KmQSKY6-20">
          <mxGeometry width="50" height="50" relative="1" as="geometry">
            <mxPoint x="690" y="535" as="sourcePoint" />
            <mxPoint x="821.961" y="649" as="targetPoint" />
          </mxGeometry>
        </mxCell>
        <mxCell id="WP3GIV7tcJfg-KmQSKY6-28" value="" style="endArrow=classic;html=1;entryX=0.056;entryY=0.238;entryDx=0;entryDy=0;entryPerimeter=0;" edge="1" parent="1" target="WP3GIV7tcJfg-KmQSKY6-22">
          <mxGeometry width="50" height="50" relative="1" as="geometry">
            <mxPoint x="110" y="540" as="sourcePoint" />
            <mxPoint x="160" y="490" as="targetPoint" />
          </mxGeometry>
        </mxCell>
        <mxCell id="WP3GIV7tcJfg-KmQSKY6-29" value="" style="endArrow=classic;html=1;" edge="1" parent="1" target="WP3GIV7tcJfg-KmQSKY6-22">
          <mxGeometry width="50" height="50" relative="1" as="geometry">
            <mxPoint x="710" y="535" as="sourcePoint" />
            <mxPoint x="630" y="754" as="targetPoint" />
          </mxGeometry>
        </mxCell>
        <mxCell id="WP3GIV7tcJfg-KmQSKY6-30" value="" style="endArrow=classic;html=1;entryX=0.634;entryY=0.013;entryDx=0;entryDy=0;entryPerimeter=0;" edge="1" parent="1" target="WP3GIV7tcJfg-KmQSKY6-22">
          <mxGeometry width="50" height="50" relative="1" as="geometry">
            <mxPoint x="450" y="535" as="sourcePoint" />
            <mxPoint x="500" y="485" as="targetPoint" />
          </mxGeometry>
        </mxCell>
        <mxCell id="WP3GIV7tcJfg-KmQSKY6-31" value="serviceMC" style="ellipse;whiteSpace=wrap;html=1;" vertex="1" parent="1">
          <mxGeometry x="280" y="910" width="520" height="80" as="geometry" />
        </mxCell>
        <mxCell id="WP3GIV7tcJfg-KmQSKY6-35" value="" style="endArrow=classic;html=1;" edge="1" parent="1" target="WP3GIV7tcJfg-KmQSKY6-31">
          <mxGeometry width="50" height="50" relative="1" as="geometry">
            <mxPoint x="270" y="770" as="sourcePoint" />
            <mxPoint x="320" y="720" as="targetPoint" />
          </mxGeometry>
        </mxCell>
        <mxCell id="WP3GIV7tcJfg-KmQSKY6-36" value="" style="endArrow=classic;html=1;" edge="1" parent="1">
          <mxGeometry width="50" height="50" relative="1" as="geometry">
            <mxPoint x="827" y="769.18" as="sourcePoint" />
            <mxPoint x="620" y="910" as="targetPoint" />
          </mxGeometry>
        </mxCell>
        <mxCell id="WP3GIV7tcJfg-KmQSKY6-37" value="User&lt;br&gt;" style="shape=umlActor;verticalLabelPosition=bottom;labelBackgroundColor=#ffffff;verticalAlign=top;html=1;outlineConnect=0;" vertex="1" parent="1">
          <mxGeometry x="385" y="-130" width="30" height="60" as="geometry" />
        </mxCell>
      </root>
    </mxGraphModel>
  </diagram>
</mxfile>
